:SAMPLES-PER-SECOND 30
:FULLY-SPECIFIED
:DEGREES
16
root  -79.9711 33.8189 -9.19315 -134.401 83.6293 -135.924
RightUpLeg  -49.6141 -2.28999 1.85253
RightLeg  10.0843 4.18243 0.750315
RightFoot  -3.43687 -0.252906 3.01807
RightToes  -1.16416e-010 -3.18055e-015 8.94531e-016
Spine  5.4407 -12.4884 -9.40831
Spine1  18.5272 -18.6786 15.1354
HEad  -18.9795 13.2568 -2.14716
LeftShoulder1  0 -2.69403e-036 -1.28585e-037
LeftArm  -6.0742 -27.7243 -71.1008
LeftForeArm  -1.44103 -11.8417 -0.700024
LeftHand  0.461176 3.91744 2.3159
RightShoulder  -2.48481e-017 0 -8.08114e-019
RightArm  78.3162 -71.9151 33.3547
RightForeArm  -48.352 20.8135 -15.2355
RightHand  1.31009 -11.3307 -4.56085
LeftUpLeg  19.8849 -7.35648 7.28175
LeftLeg  29.0164 -7.82545 1.25925
LeftFoot  -23.1619 -1.31943 -14.3862
LeftToes  4.03816e-010 4.04885e-011 2.79281e-011
17
root  -76.823 33.1944 -8.849 -144.131 80.5737 -147.839
RightUpLeg  -53.9981 -8.42152 6.20719
RightLeg  15.8799 7.62497 0.0108989
RightFoot  -4.27428 -0.324963 4.19412
RightToes  -1.16416e-010 -3.18055e-015 8.94531e-016
Spine  6.69864 -14.8015 -10.7917
Spine1  17.3287 -22.171 19.6289
HEad  -20.6705 14.832 -3.08531
LeftShoulder1  0 -2.69403e-036 -1.28585e-037
LeftArm  -12.6265 -26.734 -72.4453
LeftForeArm  2.43678 -8.19148 -1.33148
LeftHand  0.445591 3.9629 3.07372
RightShoulder  -2.48481e-017 0 -8.08114e-019
RightArm  98.0398 -72.9457 12.287
RightForeArm  -49.9753 20.9957 -17.903
RightHand  1.2088 -10.7173 -4.15157
LeftUpLeg  23.2506 -9.51133 10.0773
LeftLeg  24.3403 -9.03452 0.100765
LeftFoot  -15.2946 -0.314715 -18.3077
LeftToes  4.03816e-010 4.04885e-011 2.79281e-011
18
root  -73.5994 32.7146 -8.54082 -145.728 78.0389 -153.074
RightUpLeg  -59.7062 -11.577 9.1637
RightLeg  24.9705 7.94902 -0.804223
RightFoot  -2.38935 -0.353998 3.75624
RightToes  -1.16416e-010 -3.18055e-015 8.94531e-016
Spine  7.78357 -16.5126 -11.0437
Spine1  14.5615 -24.953 25.0865
HEad  -22.2088 15.8911 -4.92313
LeftShoulder1  0 -2.69403e-036 -1.28585e-037
LeftArm  -16.3131 -23.8222 -76.042
LeftForeArm  3.5647 -5.23418 -1.13826
LeftHand  0.371015 3.82443 4.69692
RightShoulder  -2.48481e-017 0 -8.08114e-019
RightArm  104.466 -72.1593 0.191869
RightForeArm  -49.9883 21.058 -19.0282
RightHand  1.10874 -10.0462 -3.88918
LeftUpLeg  23.7618 -11.9699 12.0001
LeftLeg  20.8983 -4.00639 1.91289
LeftFoot  -0.465662 2.27473 -19.3717
LeftToes  4.03816e-010 4.04885e-011 2.79281e-011
19
root  -70.5045 32.2608 -8.34667 -132.686 77.9474 -142.958
RightUpLeg  -64.2951 -9.73464 11.9282
RightLeg  34.9337 7.46387 -1.85728
RightFoot  0.383655 -0.170164 1.48816
RightToes  -1.16416e-010 -3.18055e-015 8.94531e-016
Spine  10.6903 -16.3529 -8.58665
Spine1  10.9504 -25.0256 29.6093
HEad  -25.8175 16.8339 -7.15714
LeftShoulder1  0 -2.69403e-036 -1.28585e-037
LeftArm  -19.2951 -20.7017 -80.4376
LeftForeArm  4.84974 -2.49246 -1.06318
LeftHand  0.152748 3.32095 8.05962
RightShoulder  -2.48481e-017 0 -8.08114e-019
RightArm  91.1962 -71.2272 7.38912
RightForeArm  -50.4705 21.1495 -19.6978
RightHand  1.09093 -9.88922 -4.0025
LeftUpLeg  23.1903 -13.4142 12.4088
LeftLeg  21.3822 1.21096 4.42551
LeftFoot  19.1969 4.23533 -14.6027
LeftToes  4.03816e-010 4.04885e-011 2.79281e-011
20
root  -67.7622 31.8538 -8.30382 -102.983 77.9118 -114.571
RightUpLeg  -65.8428 -4.80329 15.5554
RightLeg  42.6751 8.06901 -2.05061
RightFoot  1.44528 0.0457403 -0.361086
RightToes  -1.16416e-010 -3.18055e-015 8.94531e-016
Spine  15.6632 -14.737 -4.09212
Spine1  8.58839 -22.7667 31.317
HEad  -32.4267 18.6606 -8.40141
LeftShoulder1  0 -2.69403e-036 -1.28585e-037
LeftArm  -22.2412 -18.9275 -84.5066
LeftForeArm  5.47071 -0.721363 -1.37839
LeftHand  -0.157213 2.73766 12.3554
RightShoulder  -2.48481e-017 0 -8.08114e-019
RightArm  61.105 -67.1402 35.72
RightForeArm  -51.2879 21.6812 -20.7089
RightHand  1.15445 -10.2091 -4.59498
LeftUpLeg  20.6326 -12.7405 11.77
LeftLeg  28.145 -3.58292 3.63938
LeftFoot  30.6682 5.23317 -12.6136
LeftToes  4.03816e-010 4.04885e-011 2.79281e-011
21
root  -65.1273 31.7275 -8.35078 -74.1814 75.3846 -86.7029
RightUpLeg  -64.6805 -0.818957 19.8069
RightLeg  47.723 9.80927 -0.50751
RightFoot  -0.307828 0.117252 -1.00026
RightToes  -1.16416e-010 -3.18055e-015 8.94531e-016
Spine  20.1367 -13.0147 -0.0503068
Spine1  7.654 -20.1444 30.4544
HEad  -39.8518 21.8787 -9.04453
LeftShoulder1  0 -2.69403e-036 -1.28585e-037
LeftArm  -24.9232 -18.3161 -87.8383
LeftForeArm  5.8752 -0.571478 -1.81861
LeftHand  -0.457212 2.21935 15.8719
RightShoulder  -2.48481e-017 0 -8.08114e-019
RightArm  38.3049 -53.9945 63.0657
RightForeArm  -51.5221 22.8646 -21.567
RightHand  1.20001 -10.3106 -5.51504
LeftUpLeg  13.8667 -10.5925 10.4714
LeftLeg  41.4199 -11.6444 -1.17026
LeftFoot  26.764 4.25016 -11.4034
LeftToes  4.03816e-010 4.04885e-011 2.79281e-011
22
root  -62.1938 31.9839 -8.37462 -54.3424 72.164 -68.1364
RightUpLeg  -61.7955 0.768884 22.8527
RightLeg  51.8745 12.3177 2.78641
RightFoot  -4.37677 0.191221 -2.43178
RightToes  -1.16416e-010 -3.18055e-015 8.94531e-016
Spine  22.3342 -11.5597 1.8855
Spine1  6.68667 -18.0811 28.855
HEad  -45.2512 25.4865 -11.2045
LeftShoulder1  0 -2.69403e-036 -1.28585e-037
LeftArm  -26.8718 -18.1086 -90.6594
LeftForeArm  8.56873 -0.779434 -2.26212
LeftHand  -0.575238 1.91536 16.5774
RightShoulder  -2.48481e-017 0 -8.08114e-019
RightArm  33.1078 -34.3364 79.4286
RightForeArm  -52.3484 24.4018 -22.467
RightHand  1.28378 -10.4706 -7.19381
LeftUpLeg  3.99523 -8.44718 8.27738
LeftLeg  55.2279 -12.25 -1.08038
LeftFoot  15.248 2.20205 -8.28627
LeftToes  4.03816e-010 4.04885e-011 2.79281e-011
23
root  -59.112 32.5133 -8.35393 -40.2293 69.0822 -54.6665
RightUpLeg  -57.2037 1.96276 23.146
RightLeg  55.18 14.5855 6.52909
RightFoot  -8.90261 0.213207 -5.96508
RightToes  -1.16416e-010 -3.18055e-015 8.94531e-016
Spine  23.1013 -10.1247 2.72338
Spine1  5.14207 -15.9309 26.671
HEad  -47.3975 27.4407 -14.7714
LeftShoulder1  0 -2.69403e-036 -1.28585e-037
LeftArm  -27.6747 -18.8101 -93.3803
LeftForeArm  13.9164 -0.868009 -2.21752
LeftHand  -0.438646 1.76911 13.1557
RightShoulder  -2.48481e-017 0 -8.08114e-019
RightArm  38.4877 -13.2282 91.1023
RightForeArm  -53.091 25.3569 -23.0384
RightHand  1.51896 -11.1587 -10.0166
LeftUpLeg  -7.14524 -6.49024 5.82887
LeftLeg  66.5347 -9.78563 6.65379
LeftFoot  5.11706 1.02513 -6.2569
LeftToes  4.03816e-010 4.04885e-011 2.79281e-011
24
root  -56.2646 33.1738 -8.35037 -32.1641 65.9563 -45.8009
RightUpLeg  -50.9602 3.85918 21.7736
RightLeg  56.0806 15.8363 8.63677
RightFoot  -12.2118 0.0734818 -9.0958
RightToes  -1.16416e-010 -3.18055e-015 8.94531e-016
Spine  24.1847 -8.96321 5.4129
Spine1  3.08559 -12.9771 22.0157
HEad  -46.4292 26.4776 -16.4715
LeftShoulder1  0 -2.69403e-036 -1.28585e-037
LeftArm  -26.6828 -21.506 -95.7871
LeftForeArm  18.2946 -0.839041 -1.7851
LeftHand  -0.217935 1.70835 8.66765
RightShoulder  -2.48481e-017 0 -8.08114e-019
RightArm  50.2401 6.02998 101.864
RightForeArm  -52.8166 24.8563 -22.7311
RightHand  1.67215 -11.5313 -11.8223
LeftUpLeg  -19.7268 -5.12111 4.84164
LeftLeg  77.2318 -10.5907 11.9525
LeftFoot  -0.687524 0.313792 -2.76519
LeftToes  4.03816e-010 4.04885e-011 2.79281e-011
